
<svg width="32" height="32" viewBox="0 0 32 32" fill="none" xmlns="http://www.w3.org/2000/svg">
<g clip-path="url(#clip0_201_2)">
<path d="M31.8805 12.557C31.6035 11.758 30.8925 11.173 30.0365 11.046L21.7105 9.80801L18.0915 2.29401C17.7105 1.50501 16.8955 1.00001 15.9995 1.00001C15.1035 1.00001 14.2885 1.50501 13.9075 2.29401L10.2885 9.80801L1.96151 11.046C1.10651 11.173 0.395505 11.758 0.119505 12.557C-0.155494 13.358 0.0525059 14.24 0.656505 14.842L6.75851 20.934L5.34351 29.385C5.19951 30.236 5.56851 31.09 6.29151 31.588C6.6885 31.861 7.15551 32 7.62251 32C8.00651 32 8.39151 31.906 8.74051 31.719L15.9995 27.811L23.2595 31.719C23.6085 31.906 23.9935 32 24.3765 32C24.8435 32 25.3105 31.861 25.7085 31.588C26.4315 31.09 26.7985 30.236 26.6555 29.385L25.2395 20.934L31.3435 14.842C31.9465 14.239 32.1535 13.357 31.8805 12.557ZM23.5875 19.363C23.0755 19.873 22.8435 20.592 22.9605 21.297L24.3765 29.748L17.1165 25.842C16.7685 25.654 16.3845 25.561 15.9985 25.561C15.6145 25.561 15.2295 25.655 14.8815 25.842L7.62151 29.748L9.03751 21.297C9.15551 20.592 8.9235 19.873 8.4115 19.363L2.30951 13.271L10.6355 12.031C11.3965 11.918 12.0515 11.442 12.3785 10.763L15.9995 3.25101L19.6195 10.764C19.9475 11.443 20.6015 11.918 21.3615 12.032L29.6895 13.272L23.5875 19.363Z" fill="#F97316"/>
<rect x="7" y="11" width="18" height="16" fill="#F97316"/>
<path d="M15.5 2L20.2631 11.75H10.7369L15.5 2Z" fill="#F97316"/>
<path d="M31.68 14.0374L22.6964 20.5307L21.3283 10.0736L31.68 14.0374Z" fill="#F97316"/>
<path d="M11.7987 10.588L7.91858 20.9713L0.985218 13.0246L11.7987 10.588Z" fill="#F97316"/>
<path d="M6.85342 31.039L8.5377 20.0832L16.9441 26.4514L6.85342 31.039Z" fill="#F97316"/>
<path d="M26.0292 30.8671L15.7168 26.8024L23.786 20.0119L26.0292 30.8671Z" fill="#F97316"/>
</g>
<defs>
<clipPath id="clip0_201_2">
<rect width="32" height="32" fill="white"/>
</clipPath>
</defs>
</svg>